<?xml version='1.0' encoding='utf-8'?>
<mxfile host="app.diagrams.net">
  <diagram name="Network Architecture" id="network">
    <mxGraphModel dx="2500" dy="1600" grid="1" gridSize="10">
      <root>
        <mxCell id="0" />
        <mxCell id="1" parent="0" />
        <mxCell id="2" value="Internet" style="sketch=0;points=[[0,0,0],[0.25,0,0],[0.5,0,0],[0.75,0,0],[1,0,0],[0,1,0],[0.25,1,0],[0.5,1,0],[0.75,1,0],[1,1,0],[0,0.25,0],[0,0.5,0],[0,0.75,0],[1,0.25,0],[1,0.5,0],[1,0.75,0]];outlineConnect=0;fontColor=#232F3E;gradientColor=#945DF2;gradientDirection=north;fillColor=#5A30B5;strokeColor=#ffffff;dashed=0;verticalLabelPosition=bottom;verticalAlign=top;align=center;html=1;fontSize=10;fontStyle=0;aspect=fixed;shape=mxgraph.aws4.internet_gateway;" vertex="1" parent="1">
          <mxGeometry x="100" y="100" width="78" height="78" as="geometry" />
        </mxCell>
        <mxCell id="3" value="BMC Users\n10K concurrent" style="sketch=0;points=[[0,0,0],[0.25,0,0],[0.5,0,0],[0.75,0,0],[1,0,0],[0,1,0],[0.25,1,0],[0.5,1,0],[0.75,1,0],[1,1,0],[0,0.25,0],[0,0.5,0],[0,0.75,0],[1,0.25,0],[1,0.5,0],[1,0.75,0]];outlineConnect=0;fontColor=#232F3E;gradientColor=#945DF2;gradientDirection=north;fillColor=#5A30B5;strokeColor=#ffffff;dashed=0;verticalLabelPosition=bottom;verticalAlign=top;align=center;html=1;fontSize=10;fontStyle=0;aspect=fixed;shape=mxgraph.aws4.users;" vertex="1" parent="1">
          <mxGeometry x="300" y="100" width="78" height="78" as="geometry" />
        </mxCell>
        <mxCell id="4" value="AWS Cloud - us-east-1" style="fillColor=#E3F2FD;strokeColor=#1976D2;dashed=1;verticalAlign=top;fontStyle=1;fontColor=#1976D2;whiteSpace=wrap;html=1;fontSize=12;" vertex="1" parent="1">
          <mxGeometry x="50" y="220" width="2300" height="1300" as="geometry" />
        </mxCell>
        <mxCell id="5" value="VPC 10.0.0.0/16" style="fillColor=#E3F2FD;strokeColor=#1976D2;dashed=1;verticalAlign=top;fontStyle=1;fontColor=#1976D2;whiteSpace=wrap;html=1;fontSize=12;" vertex="1" parent="4">
          <mxGeometry x="50" y="200" width="2100" height="1000" as="geometry" />
        </mxCell>
        <mxCell id="6" value="AZ us-east-1a" style="fillColor=#E3F2FD;strokeColor=#1976D2;dashed=1;verticalAlign=top;fontStyle=1;fontColor=#1976D2;whiteSpace=wrap;html=1;fontSize=12;" vertex="1" parent="5">
          <mxGeometry x="50" y="50" width="900" height="900" as="geometry" />
        </mxCell>
        <mxCell id="7" value="Public Subnet\n10.0.1.0/24" style="fillColor=#E3F2FD;strokeColor=#1976D2;dashed=1;verticalAlign=top;fontStyle=1;fontColor=#1976D2;whiteSpace=wrap;html=1;fontSize=12;" vertex="1" parent="6">
          <mxGeometry x="50" y="50" width="350" height="150" as="geometry" />
        </mxCell>
        <mxCell id="8" value="NAT Gateway 1A" style="sketch=0;points=[[0,0,0],[0.25,0,0],[0.5,0,0],[0.75,0,0],[1,0,0],[0,1,0],[0.25,1,0],[0.5,1,0],[0.75,1,0],[1,1,0],[0,0.25,0],[0,0.5,0],[0,0.75,0],[1,0.25,0],[1,0.5,0],[1,0.75,0]];outlineConnect=0;fontColor=#232F3E;gradientColor=#945DF2;gradientDirection=north;fillColor=#5A30B5;strokeColor=#ffffff;dashed=0;verticalLabelPosition=bottom;verticalAlign=top;align=center;html=1;fontSize=10;fontStyle=0;aspect=fixed;shape=mxgraph.aws4.elastic_load_balancing;" vertex="1" parent="7">
          <mxGeometry x="50" y="60" width="78" height="78" as="geometry" />
        </mxCell>
        <mxCell id="9" value="Private Subnet\n10.0.10.0/24" style="fillColor=#E3F2FD;strokeColor=#1976D2;dashed=1;verticalAlign=top;fontStyle=1;fontColor=#1976D2;whiteSpace=wrap;html=1;fontSize=12;" vertex="1" parent="6">
          <mxGeometry x="50" y="250" width="350" height="200" as="geometry" />
        </mxCell>
        <mxCell id="10" value="App Services 1A" style="sketch=0;points=[[0,0,0],[0.25,0,0],[0.5,0,0],[0.75,0,0],[1,0,0],[0,1,0],[0.25,1,0],[0.5,1,0],[0.75,1,0],[1,1,0],[0,0.25,0],[0,0.5,0],[0,0.75,0],[1,0.25,0],[1,0.5,0],[1,0.75,0]];outlineConnect=0;fontColor=#232F3E;gradientColor=#945DF2;gradientDirection=north;fillColor=#5A30B5;strokeColor=#ffffff;dashed=0;verticalLabelPosition=bottom;verticalAlign=top;align=center;html=1;fontSize=10;fontStyle=0;aspect=fixed;shape=mxgraph.aws4.fargate;" vertex="1" parent="9">
          <mxGeometry x="50" y="80" width="78" height="78" as="geometry" />
        </mxCell>
        <mxCell id="11" value="Isolated Subnet\n10.0.20.0/24" style="fillColor=#E3F2FD;strokeColor=#1976D2;dashed=1;verticalAlign=top;fontStyle=1;fontColor=#1976D2;whiteSpace=wrap;html=1;fontSize=12;" vertex="1" parent="6">
          <mxGeometry x="50" y="500" width="350" height="150" as="geometry" />
        </mxCell>
        <mxCell id="12" value="RDS Primary\nus-east-1a" style="sketch=0;points=[[0,0,0],[0.25,0,0],[0.5,0,0],[0.75,0,0],[1,0,0],[0,1,0],[0.25,1,0],[0.5,1,0],[0.75,1,0],[1,1,0],[0,0.25,0],[0,0.5,0],[0,0.75,0],[1,0.25,0],[1,0.5,0],[1,0.75,0]];outlineConnect=0;fontColor=#232F3E;gradientColor=#945DF2;gradientDirection=north;fillColor=#5A30B5;strokeColor=#ffffff;dashed=0;verticalLabelPosition=bottom;verticalAlign=top;align=center;html=1;fontSize=10;fontStyle=0;aspect=fixed;shape=mxgraph.aws4.rds;" vertex="1" parent="11">
          <mxGeometry x="50" y="60" width="78" height="78" as="geometry" />
        </mxCell>
        <mxCell id="13" value="AZ us-east-1b" style="fillColor=#E3F2FD;strokeColor=#1976D2;dashed=1;verticalAlign=top;fontStyle=1;fontColor=#1976D2;whiteSpace=wrap;html=1;fontSize=12;" vertex="1" parent="5">
          <mxGeometry x="1000" y="50" width="900" height="900" as="geometry" />
        </mxCell>
        <mxCell id="14" value="RDS Standby\nus-east-1b" style="sketch=0;points=[[0,0,0],[0.25,0,0],[0.5,0,0],[0.75,0,0],[1,0,0],[0,1,0],[0.25,1,0],[0.5,1,0],[0.75,1,0],[1,1,0],[0,0.25,0],[0,0.5,0],[0,0.75,0],[1,0.25,0],[1,0.5,0],[1,0.75,0]];outlineConnect=0;fontColor=#232F3E;gradientColor=#945DF2;gradientDirection=north;fillColor=#5A30B5;strokeColor=#ffffff;dashed=0;verticalLabelPosition=bottom;verticalAlign=top;align=center;html=1;fontSize=10;fontStyle=0;aspect=fixed;shape=mxgraph.aws4.rds;" vertex="1" parent="13">
          <mxGeometry x="100" y="600" width="78" height="78" as="geometry" />
        </mxCell>
        <mxCell id="15" value="Edge Layer" style="fillColor=#E3F2FD;strokeColor=#1976D2;dashed=1;verticalAlign=top;fontStyle=1;fontColor=#1976D2;whiteSpace=wrap;html=1;fontSize=12;" vertex="1" parent="4">
          <mxGeometry x="50" y="50" width="500" height="120" as="geometry" />
        </mxCell>
        <mxCell id="16" value="CloudFront CDN\nGlobal Edge" style="sketch=0;points=[[0,0,0],[0.25,0,0],[0.5,0,0],[0.75,0,0],[1,0,0],[0,1,0],[0.25,1,0],[0.5,1,0],[0.75,1,0],[1,1,0],[0,0.25,0],[0,0.5,0],[0,0.75,0],[1,0.25,0],[1,0.5,0],[1,0.75,0]];outlineConnect=0;fontColor=#232F3E;gradientColor=#945DF2;gradientDirection=north;fillColor=#5A30B5;strokeColor=#ffffff;dashed=0;verticalLabelPosition=bottom;verticalAlign=top;align=center;html=1;fontSize=10;fontStyle=0;aspect=fixed;shape=mxgraph.aws4.cloudfront;" vertex="1" parent="15">
          <mxGeometry x="50" y="40" width="78" height="78" as="geometry" />
        </mxCell>
        <mxCell id="17" value="AWS WAF\nDDoS Protection" style="sketch=0;points=[[0,0,0],[0.25,0,0],[0.5,0,0],[0.75,0,0],[1,0,0],[0,1,0],[0.25,1,0],[0.5,1,0],[0.75,1,0],[1,1,0],[0,0.25,0],[0,0.5,0],[0,0.75,0],[1,0.25,0],[1,0.5,0],[1,0.75,0]];outlineConnect=0;fontColor=#232F3E;gradientColor=#945DF2;gradientDirection=north;fillColor=#5A30B5;strokeColor=#ffffff;dashed=0;verticalLabelPosition=bottom;verticalAlign=top;align=center;html=1;fontSize=10;fontStyle=0;aspect=fixed;shape=mxgraph.aws4.waf;" vertex="1" parent="15">
          <mxGeometry x="180" y="40" width="78" height="78" as="geometry" />
        </mxCell>
        <mxCell id="18" value="API Layer" style="fillColor=#E3F2FD;strokeColor=#1976D2;dashed=1;verticalAlign=top;fontStyle=1;fontColor=#1976D2;whiteSpace=wrap;html=1;fontSize=12;" vertex="1" parent="4">
          <mxGeometry x="600" y="50" width="500" height="120" as="geometry" />
        </mxCell>
        <mxCell id="19" value="API Gateway\nREST + GraphQL" style="sketch=0;points=[[0,0,0],[0.25,0,0],[0.5,0,0],[0.75,0,0],[1,0,0],[0,1,0],[0.25,1,0],[0.5,1,0],[0.75,1,0],[1,1,0],[0,0.25,0],[0,0.5,0],[0,0.75,0],[1,0.25,0],[1,0.5,0],[1,0.75,0]];outlineConnect=0;fontColor=#232F3E;gradientColor=#945DF2;gradientDirection=north;fillColor=#5A30B5;strokeColor=#ffffff;dashed=0;verticalLabelPosition=bottom;verticalAlign=top;align=center;html=1;fontSize=10;fontStyle=0;aspect=fixed;shape=mxgraph.aws4.api_gateway;" vertex="1" parent="18">
          <mxGeometry x="50" y="40" width="78" height="78" as="geometry" />
        </mxCell>
        <mxCell id="20" value="Cognito\nUser Pool" style="sketch=0;points=[[0,0,0],[0.25,0,0],[0.5,0,0],[0.75,0,0],[1,0,0],[0,1,0],[0.25,1,0],[0.5,1,0],[0.75,1,0],[1,1,0],[0,0.25,0],[0,0.5,0],[0,0.75,0],[1,0.25,0],[1,0.5,0],[1,0.75,0]];outlineConnect=0;fontColor=#232F3E;gradientColor=#945DF2;gradientDirection=north;fillColor=#5A30B5;strokeColor=#ffffff;dashed=0;verticalLabelPosition=bottom;verticalAlign=top;align=center;html=1;fontSize=10;fontStyle=0;aspect=fixed;shape=mxgraph.aws4.cognito;" vertex="1" parent="18">
          <mxGeometry x="180" y="40" width="78" height="78" as="geometry" />
        </mxCell>
        <mxCell id="21" value="Application LB\nMulti-AZ" style="sketch=0;points=[[0,0,0],[0.25,0,0],[0.5,0,0],[0.75,0,0],[1,0,0],[0,1,0],[0.25,1,0],[0.5,1,0],[0.75,1,0],[1,1,0],[0,0.25,0],[0,0.5,0],[0,0.75,0],[1,0.25,0],[1,0.5,0],[1,0.75,0]];outlineConnect=0;fontColor=#232F3E;gradientColor=#945DF2;gradientDirection=north;fillColor=#5A30B5;strokeColor=#ffffff;dashed=0;verticalLabelPosition=bottom;verticalAlign=top;align=center;html=1;fontSize=10;fontStyle=0;aspect=fixed;shape=mxgraph.aws4.elastic_load_balancing;" vertex="1" parent="18">
          <mxGeometry x="310" y="40" width="78" height="78" as="geometry" />
        </mxCell>
        <mxCell id="22" value="" style="endArrow=classic;html=1;rounded=0;strokeColor=#232F3E;strokeWidth=3;" edge="1" parent="1" source="3" target="2">
          <mxGeometry width="50" height="50" relative="1" as="geometry" />
        </mxCell>
        <mxCell id="23" value="" style="endArrow=classic;html=1;rounded=0;strokeColor=#232F3E;strokeWidth=3;" edge="1" parent="1" source="2" target="16">
          <mxGeometry width="50" height="50" relative="1" as="geometry" />
        </mxCell>
        <mxCell id="24" value="" style="endArrow=classic;html=1;rounded=0;strokeColor=#F44336;strokeWidth=2;" edge="1" parent="1" source="16" target="17">
          <mxGeometry width="50" height="50" relative="1" as="geometry" />
        </mxCell>
        <mxCell id="25" value="" style="endArrow=classic;html=1;rounded=0;strokeColor=#232F3E;strokeWidth=3;" edge="1" parent="1" source="17" target="19">
          <mxGeometry width="50" height="50" relative="1" as="geometry" />
        </mxCell>
        <mxCell id="26" value="" style="endArrow=classic;html=1;rounded=0;strokeColor=#FF9900;strokeWidth=2;" edge="1" parent="1" source="19" target="20">
          <mxGeometry width="50" height="50" relative="1" as="geometry" />
        </mxCell>
        <mxCell id="27" value="" style="endArrow=classic;html=1;rounded=0;strokeColor=#232F3E;strokeWidth=3;" edge="1" parent="1" source="19" target="21">
          <mxGeometry width="50" height="50" relative="1" as="geometry" />
        </mxCell>
        <mxCell id="28" value="" style="endArrow=classic;html=1;rounded=0;strokeColor=#2196F3;strokeWidth=2;" edge="1" parent="1" source="21" target="10">
          <mxGeometry width="50" height="50" relative="1" as="geometry" />
        </mxCell>
        <mxCell id="29" value="" style="endArrow=classic;html=1;rounded=0;strokeColor=#2196F3;strokeWidth=2;" edge="1" parent="1" source="10" target="12">
          <mxGeometry width="50" height="50" relative="1" as="geometry" />
        </mxCell>
        <mxCell id="30" value="" style="endArrow=classic;html=1;rounded=0;strokeColor=#FF9800;strokeWidth=2;" edge="1" parent="1" source="12" target="14">
          <mxGeometry width="50" height="50" relative="1" as="geometry" />
        </mxCell>
      </root>
    </mxGraphModel>
  </diagram>
</mxfile>